<?xml version="1.0" encoding="utf-8"?>
<!-- Uploaded to: SVG Repo, www.svgrepo.com, Generator: SVG Repo Mixer Tools -->
<!DOCTYPE svg PUBLIC "-//W3C//DTD SVG 1.1//EN" "http://www.w3.org/Graphics/SVG/1.1/DTD/svg11.dtd">
<svg fill="#000000" width="800px" height="800px" viewBox="0 0 1000 1000" version="1.1" xmlns="http://www.w3.org/2000/svg" xmlns:xlink="http://www.w3.org/1999/xlink"  enable-background="new 0 0 1000 1000" xml:space="preserve">

<g>
<g transform="translate(0.000000,511.000000) scale(0.100000,-0.100000)">
<path d="M1740.1,4988c-196.4-33.1-469.3-132.6-635-232.1c-81.6-45.9-242.3-181.1-362.2-300.9c-369.8-367.2-535.6-770.2-535.6-1295.6c0-397.9,99.5-731.9,308.6-1043.1c81.6-122.4,1851.5-1920.4,1889.8-1920.4c10.2,0,20.4,15.3,20.4,33.1c0,76.5,262.7,553.4,380,688.6c288.2,334.1,670.7,578.9,1066,686c262.7,71.4,760,76.5,999.7,12.7c387.6-104.6,658-252.5,930.9-505l181.1-170.9l497.3,487.1c566.2,556,658,663.1,793.1,948.7c137.7,283.1,183.6,517.7,168.3,867.1c-20.4,492.2-181.1,859.5-527.9,1214c-609.5,617.2-1522.6,729.4-2287.7,275.4c-214.2-127.5-484.6-413.2-645.2-680.9c-76.5-127.5-145.4-234.6-155.6-234.6c-7.6,0-66.3,89.3-132.6,198.9c-295.8,487.1-655.4,780.4-1127.3,918.1C2334.4,5000.7,1951.8,5026.2,1740.1,4988z"/>
<path d="M3938.5,1394.5c-318.8-84.2-617.2-255-849.3-484.6c-635-637.6-716.6-1655.2-193.8-2379.4c63.8-86.7,826.3-869.7,1696-1739.3L6175.2-4790l1655.2,1657.7l1652.6,1657.7l117.3,234.6c160.7,326.4,206.6,548.3,188.7,936c-10.2,242.3-28.1,349.4-79.1,499.9c-193.8,553.4-612.1,969.1-1175.7,1165.5c-186.2,63.8-234.6,71.4-573.8,71.4c-318.8,0-392.8-7.6-545.8-58.6c-479.5-160.7-813.6-433.6-1089-890.1c-71.4-117.3-137.7-211.7-147.9-211.7s-81.6,99.5-155.6,224.4c-201.5,331.5-484.6,599.3-790.6,752.4c-132.6,66.3-323.9,137.7-420.8,158.1C4560.8,1460.9,4165.5,1453.2,3938.5,1394.5z"/>
</g>
</g>
</svg>